<svg xmlns="http://www.w3.org/2000/svg"  viewBox="0 0 64 64" width="64px" height="64px"><path fill="#ed7899" d="M13,7h38c3.314,0,6,2.686,6,6v38c0,3.314-2.686,6-6,6H13c-3.314,0-6-2.686-6-6V13	C7,9.686,9.686,7,13,7z"/><path fill="#f283a5" d="M11,7h42c2.209,0,4,1.791,4,4l0,0c0,1.657-1.343,3-3,3H10c-1.657,0-3-1.343-3-3l0,0	C7,8.791,8.791,7,11,7z"/><path fill="#8d6c9f" d="M51,58H13c-3.86,0-7-3.141-7-7V13c0-3.859,3.14-7,7-7h38c3.86,0,7,3.141,7,7v38	C58,54.859,54.86,58,51,58z M13,8c-2.757,0-5,2.243-5,5v38c0,2.757,2.243,5,5,5h38c2.757,0,5-2.243,5-5V13c0-2.757-2.243-5-5-5H13z"/><path fill="#faefde" d="M44,19.51V43c0,2.76-2.24,5-5,5h-1c-2.47,0-4.42-2.24-3.92-4.81c0.37-1.9,2.16-3.19,4.09-3.19H39	c0.55,0,1-0.45,1-1V24.91l-14,3.18V47c0,2.76-2.24,5-5,5h-1c-2.47,0-4.42-2.24-3.92-4.81c0.37-1.9,2.16-3.19,4.09-3.19H21	c0.55,0,1-0.45,1-1V23.6c0-0.94,0.65-1.75,1.56-1.95l18-4.09C42.81,17.27,44,18.22,44,19.51z"/><path fill="#fff8ee" d="M44,19.51v1.22c-0.45,0.34-0.97,0.6-1.56,0.73l-18,4.09c-0.3,0.07-0.59,0.1-0.89,0.1	c-0.54,0-1.06-0.11-1.55-0.32V23.6c0-0.94,0.65-1.75,1.56-1.95l18-4.09C42.81,17.27,44,18.22,44,19.51z"/><path fill="#8d6c9f" d="M21,53h-1c-1.5,0-2.907-0.664-3.861-1.823c-0.954-1.158-1.333-2.68-1.042-4.175	C15.55,44.683,17.684,43,20.172,43H21V23.597c0-1.41,0.96-2.612,2.335-2.926l18-4.091c0.895-0.204,1.818,0.007,2.536,0.58	C44.588,17.732,45,18.588,45,19.506V43c0,3.309-2.691,6-6,6h-1c-1.5,0-2.907-0.664-3.861-1.823c-0.954-1.158-1.333-2.68-1.042-4.175	C33.55,40.683,35.684,39,38.172,39H39V26.162l-12,2.727V47C27,50.309,24.309,53,21,53z M20.172,45c-1.508,0-2.846,1.025-3.111,2.385	c-0.18,0.92,0.042,1.815,0.623,2.521C18.256,50.602,19.101,51,20,51h1c2.206,0,4-1.794,4-4V28.091c0-0.467,0.323-0.872,0.778-0.976	l14-3.182c0.296-0.067,0.608,0.004,0.846,0.194C40.862,24.317,41,24.605,41,24.909V39c0,1.103-0.897,2-2,2h-0.828	c-1.508,0-2.846,1.025-3.111,2.385c-0.18,0.92,0.042,1.815,0.623,2.521C36.256,46.602,37.101,47,38,47h1c2.206,0,4-1.794,4-4V19.506	c0-0.307-0.137-0.592-0.376-0.782s-0.547-0.26-0.845-0.193c0,0,0,0,0,0.001l-18,4.091C23.32,22.726,23,23.127,23,23.597V43	c0,1.103-0.897,2-2,2H20.172z M41.557,17.556h0.01H41.557z"/><path fill="#8d6c9f" d="M24.416,17.927c-0.448,0-0.855-0.303-0.969-0.758l-0.485-1.94 c-0.134-0.535,0.192-1.078,0.728-1.212c0.535-0.133,1.079,0.19,1.213,0.728l0.485,1.94c0.134,0.535-0.192,1.078-0.728,1.212 C24.578,17.917,24.496,17.927,24.416,17.927z"/><path fill="#8d6c9f" d="M29.633,16.622c-0.448,0-0.855-0.303-0.969-0.758l-0.485-1.94 c-0.134-0.535,0.192-1.078,0.728-1.212c0.532-0.135,1.079,0.19,1.212,0.728l0.485,1.94c0.134,0.535-0.192,1.078-0.728,1.212 C29.795,16.612,29.713,16.622,29.633,16.622z"/><path fill="#8d6c9f" d="M34.85,15.318c-0.448,0-0.855-0.303-0.969-0.758l-0.485-1.94c-0.134-0.535,0.192-1.078,0.728-1.212 c0.531-0.134,1.078,0.19,1.212,0.728l0.485,1.94c0.134,0.535-0.192,1.078-0.728,1.212C35.012,15.309,34.931,15.318,34.85,15.318z"/><path fill="#8d6c9f" d="M40.068,14.014c-0.448,0-0.855-0.303-0.969-0.758l-0.485-1.94 c-0.134-0.535,0.192-1.078,0.728-1.212c0.536-0.133,1.079,0.19,1.213,0.728l0.485,1.94c0.134,0.535-0.192,1.078-0.728,1.212 C40.23,14.004,40.148,14.014,40.068,14.014z"/></svg>