<svg xmlns="http://www.w3.org/2000/svg"  viewBox="0 0 64 64" width="64px" height="64px"><rect width="50" height="50" x="7" y="7" fill="#72caaf" rx="2" ry="2"/><path fill="#5dbc9d" d="M32 20A12 12 0 1 0 32 44A12 12 0 1 0 32 20Z"/><path fill="#8d6c9f" d="M55,6H9A3,3,0,0,0,6,9V55a3,3,0,0,0,3,3H55a3,3,0,0,0,3-3V9A3,3,0,0,0,55,6Zm1,49a1,1,0,0,1-1,1H9a1,1,0,0,1-1-1V9A1,1,0,0,1,9,8H55a1,1,0,0,1,1,1Z"/><path fill="#8d6c9f" d="M46 32a1 1 0 0 0-1-1H43a1 1 0 0 0 0 2h2A1 1 0 0 0 46 32zM21 31H19a1 1 0 0 0 0 2h2a1 1 0 0 0 0-2zM33 19a1 1 0 0 0-2 0v2a1 1 0 0 0 2 0zM32 42a1 1 0 0 0-1 1v2a1 1 0 0 0 2 0V43A1 1 0 0 0 32 42zM25 19.88a1 1 0 0 0-.37 1.37l1 1.73a1 1 0 0 0 1.73-1l-1-1.73A1 1 0 0 0 25 19.88zM37 40.66A1 1 0 0 0 36.63 42l1 1.73a1 1 0 1 0 1.73-1l-1-1.73A1 1 0 0 0 37 40.66zM23.34 27A1 1 0 0 0 23 25.63l-1.73-1a1 1 0 1 0-1 1.73l1.73 1A1 1 0 0 0 23.34 27zM42 36.63a1 1 0 1 0-1 1.73l1.73 1a1 1 0 0 0 1-1.73z"/><path fill="#faefde" d="M49.84 38.62a1 1 0 0 0-1.31.52A18 18 0 0 1 17 42h6a1 1 0 0 0 0-2H15a1 1 0 0 0-1 1v8.08a1 1 0 0 0 2 0V44a20 20 0 0 0 34.36-4.06A1 1 0 0 0 49.84 38.62zM51 31a1 1 0 0 0-1 1 18.17 18.17 0 0 1-.37 3.63 1 1 0 0 0 .78 1.18l.2 0a1 1 0 0 0 1-.8A20.14 20.14 0 0 0 52 32 1 1 0 0 0 51 31zM14.11 25.51A1 1 0 0 0 15.42 25 18 18 0 0 1 47 22.08H41a1 1 0 0 0 0 2h8a1 1 0 0 0 1-1V15a1 1 0 0 0-2 0v5A20 20 0 0 0 13.58 24.2 1 1 0 0 0 14.11 25.51zM14.28 28.83a1 1 0 1 0-2-.35A20.15 20.15 0 0 0 12 32a1 1 0 0 0 2 0A18.24 18.24 0 0 1 14.28 28.83z"/></svg>